<?xml version='1.0' encoding='iso-8859-1'?>
<!-- Uploaded to: SVG Repo, www.svgrepo.com, Generator: SVG Repo Mixer Tools -->
<svg fill="#000000" height="800px" width="800px" version="1.1" xmlns="http://www.w3.org/2000/svg" viewBox="0 0 470 470" xmlns:xlink="http://www.w3.org/1999/xlink" enable-background="new 0 0 470 470">
  <g>
    <path d="m462.5,396.272h-430c-4.142,0-7.5,3.358-7.5,7.5s3.358,7.5 7.5,7.5h4.343l4.325,15.137c3.182,11.138 14.748,19.863 26.332,19.863h360c11.584,0 23.15-8.725 26.333-19.862l4.325-15.138h4.342c4.143,0 7.5-3.358 7.5-7.5s-3.357-7.5-7.5-7.5zm-23.09,26.016c-1.344,4.702-7.021,8.983-11.91,8.983h-360c-4.89,0-10.566-4.282-11.909-8.983l-3.148-11.017h390.114l-3.147,11.017z"/>
    <path d="m93.088,290.907h13.494c25.253,55.062 80.024,90.364 140.918,90.364 85.467,0 155-69.533 155-155v-78.754c0-4.142-3.357-7.5-7.5-7.5h-7.892c-3.721-35.834-33.787-63.957-70.44-64.594-8.929-30.305-37.063-51.695-69.168-51.695-32.105,0-60.24,21.391-69.168,51.695-36.652,0.637-66.719,28.76-70.44,64.594h-84.013c-2.397,0-4.649,1.146-6.061,3.083-11.657,15.995-17.818,34.916-17.818,54.719 0,51.329 41.759,93.088 93.088,93.088zm86.517-200.495c1.193,0 2.474,0.051 4.031,0.159 3.75,0.256 7.135-2.311 7.875-6.01 5.314-26.558 28.86-45.833 55.988-45.833 27.127,0 50.674,19.275 55.988,45.833 0.74,3.698 4.109,6.264 7.876,6.01 1.556-0.108 2.837-0.159 4.03-0.159 28.945,0 52.911,21.651 56.597,49.605h-248.982c3.686-27.954 27.653-49.605 56.597-49.605zm-151.802,64.606h319.697v32.5c0,4.142 3.357,7.5 7.5,7.5s7.5-3.358 7.5-7.5v-32.5h25v71.254c0,77.196-62.804,140-140,140-56.518,0-107.196-33.667-129.109-85.772-1.17-2.783-3.895-4.592-6.914-4.592h-18.389c-43.058-0.001-78.088-35.031-78.088-78.089 0-15.351 4.415-30.07 12.803-42.801z"/>
    <path d="m93.088,260.907h9.412c2.229,0 4.343-0.992 5.768-2.706s2.014-3.974 1.606-6.165c-1.575-8.47-2.374-17.139-2.374-25.765v-48.754c0-4.142-3.358-7.5-7.5-7.5h-58.668c-3.08,0-5.847,1.883-6.977,4.749-2.89,7.329-4.355,15.085-4.355,23.053 0,34.787 28.301,63.088 63.088,63.088zm-46.367-75.889h45.779v41.254c0,6.552 0.417,13.125 1.241,19.636h-0.653c-26.516-0.001-48.088-21.573-48.088-48.089 0-4.377 0.578-8.664 1.721-12.801z"/>
    <path d="m247.5,341.272c63.411,0 115-51.589 115-115v-8.754c0-4.142-3.357-7.5-7.5-7.5s-7.5,3.358-7.5,7.5v8.754c0,55.14-44.859,100-100,100-4.143,0-7.5,3.358-7.5,7.5s3.357,7.5 7.5,7.5z"/>
  </g>
</svg>